<mxfile host="Electron" agent="Mozilla/5.0 (Windows NT 10.0; Win64; x64) AppleWebKit/537.36 (KHTML, like Gecko) draw.io/28.1.2 Chrome/138.0.7204.243 Electron/37.4.0 Safari/537.36" version="28.1.2">
  <diagram name="Page-1" id="1lJB0EINnVl0e3LPXUaK">
    <mxGraphModel dx="925" dy="607" grid="1" gridSize="10" guides="1" tooltips="1" connect="1" arrows="1" fold="1" page="1" pageScale="1" pageWidth="850" pageHeight="1100" math="0" shadow="0">
      <root>
        <mxCell id="0" />
        <mxCell id="1" parent="0" />
        <mxCell id="SBk4uGEy6tsVg_thaGGv-1" value="" style="rounded=0;whiteSpace=wrap;html=1;fillColor=none;dashed=1;strokeColor=light-dark(#5e5e5e, #ededed);" parent="1" vertex="1">
          <mxGeometry x="10" y="100" width="120" height="290" as="geometry" />
        </mxCell>
        <mxCell id="SBk4uGEy6tsVg_thaGGv-2" value="Sources" style="rounded=0;whiteSpace=wrap;html=1;fontSize=24;dashed=1;" parent="1" vertex="1">
          <mxGeometry x="15" y="90" width="110" height="20" as="geometry" />
        </mxCell>
        <mxCell id="SBk4uGEy6tsVg_thaGGv-3" value="CRM" style="image;aspect=fixed;html=1;points=[];align=center;fontSize=12;image=img/lib/azure2/general/Folder_Blank.svg;" parent="1" vertex="1">
          <mxGeometry x="50" y="180" width="36.96" height="30" as="geometry" />
        </mxCell>
        <mxCell id="SBk4uGEy6tsVg_thaGGv-18" style="edgeStyle=orthogonalEdgeStyle;rounded=0;orthogonalLoop=1;jettySize=auto;html=1;entryX=0;entryY=0.5;entryDx=0;entryDy=0;" parent="1" source="SBk4uGEy6tsVg_thaGGv-4" target="SBk4uGEy6tsVg_thaGGv-13" edge="1">
          <mxGeometry relative="1" as="geometry" />
        </mxCell>
        <mxCell id="SBk4uGEy6tsVg_thaGGv-19" style="edgeStyle=orthogonalEdgeStyle;rounded=0;orthogonalLoop=1;jettySize=auto;html=1;entryX=0;entryY=0.75;entryDx=0;entryDy=0;" parent="1" source="SBk4uGEy6tsVg_thaGGv-4" target="SBk4uGEy6tsVg_thaGGv-15" edge="1">
          <mxGeometry relative="1" as="geometry" />
        </mxCell>
        <mxCell id="SBk4uGEy6tsVg_thaGGv-20" style="edgeStyle=orthogonalEdgeStyle;rounded=0;orthogonalLoop=1;jettySize=auto;html=1;entryX=0;entryY=0.75;entryDx=0;entryDy=0;" parent="1" source="SBk4uGEy6tsVg_thaGGv-4" target="SBk4uGEy6tsVg_thaGGv-12" edge="1">
          <mxGeometry relative="1" as="geometry" />
        </mxCell>
        <mxCell id="SBk4uGEy6tsVg_thaGGv-4" value="" style="image;aspect=fixed;html=1;points=[];align=center;fontSize=12;image=img/lib/azure2/general/Media_File.svg;" parent="1" vertex="1">
          <mxGeometry x="70" y="190" width="16.25" height="20" as="geometry" />
        </mxCell>
        <mxCell id="SBk4uGEy6tsVg_thaGGv-26" style="edgeStyle=orthogonalEdgeStyle;rounded=0;orthogonalLoop=1;jettySize=auto;html=1;entryX=0;entryY=0.5;entryDx=0;entryDy=0;" parent="1" source="SBk4uGEy6tsVg_thaGGv-5" target="SBk4uGEy6tsVg_thaGGv-23" edge="1">
          <mxGeometry relative="1" as="geometry" />
        </mxCell>
        <mxCell id="SBk4uGEy6tsVg_thaGGv-5" value="ERP" style="image;aspect=fixed;html=1;points=[];align=center;fontSize=12;image=img/lib/azure2/general/Folder_Blank.svg;" parent="1" vertex="1">
          <mxGeometry x="49.999999999999964" y="265" width="36.96" height="30" as="geometry" />
        </mxCell>
        <mxCell id="SBk4uGEy6tsVg_thaGGv-24" style="edgeStyle=orthogonalEdgeStyle;rounded=0;orthogonalLoop=1;jettySize=auto;html=1;entryX=0;entryY=0.5;entryDx=0;entryDy=0;" parent="1" source="SBk4uGEy6tsVg_thaGGv-6" target="SBk4uGEy6tsVg_thaGGv-21" edge="1">
          <mxGeometry relative="1" as="geometry" />
        </mxCell>
        <mxCell id="SBk4uGEy6tsVg_thaGGv-25" style="edgeStyle=orthogonalEdgeStyle;rounded=0;orthogonalLoop=1;jettySize=auto;html=1;entryX=0;entryY=0.5;entryDx=0;entryDy=0;" parent="1" source="SBk4uGEy6tsVg_thaGGv-6" target="SBk4uGEy6tsVg_thaGGv-22" edge="1">
          <mxGeometry relative="1" as="geometry" />
        </mxCell>
        <mxCell id="SBk4uGEy6tsVg_thaGGv-6" value="" style="image;aspect=fixed;html=1;points=[];align=center;fontSize=12;image=img/lib/azure2/general/Media_File.svg;" parent="1" vertex="1">
          <mxGeometry x="70" y="275" width="16.25" height="20" as="geometry" />
        </mxCell>
        <mxCell id="SBk4uGEy6tsVg_thaGGv-8" value="&lt;font style=&quot;font-size: 19px;&quot;&gt;Data Flow Diagram&lt;/font&gt;" style="rounded=0;whiteSpace=wrap;html=1;dashed=1;dashPattern=1 4;fillColor=none;" parent="1" vertex="1">
          <mxGeometry x="15" y="10" width="240" height="60" as="geometry" />
        </mxCell>
        <mxCell id="SBk4uGEy6tsVg_thaGGv-9" value="" style="rounded=0;whiteSpace=wrap;html=1;fillColor=none;strokeColor=default;" parent="1" vertex="1">
          <mxGeometry x="210" y="130" width="120" height="260" as="geometry" />
        </mxCell>
        <mxCell id="SBk4uGEy6tsVg_thaGGv-11" value="&lt;font style=&quot;font-size: 16px;&quot;&gt;Bronze Layer&lt;/font&gt;" style="rounded=1;whiteSpace=wrap;html=1;fillColor=#ffe6cc;strokeColor=#d79b00;" parent="1" vertex="1">
          <mxGeometry x="210" y="80" width="120" height="40" as="geometry" />
        </mxCell>
        <mxCell id="Pz-q8yQwdmYVx6Bokuys-8" style="edgeStyle=orthogonalEdgeStyle;rounded=0;orthogonalLoop=1;jettySize=auto;html=1;exitX=1;exitY=0.5;exitDx=0;exitDy=0;" parent="1" source="SBk4uGEy6tsVg_thaGGv-12" target="Pz-q8yQwdmYVx6Bokuys-2" edge="1">
          <mxGeometry relative="1" as="geometry" />
        </mxCell>
        <mxCell id="SBk4uGEy6tsVg_thaGGv-12" value="crm_sales_details" style="rounded=1;whiteSpace=wrap;html=1;fillColor=#ffe6cc;strokeColor=#d79b00;" parent="1" vertex="1">
          <mxGeometry x="220" y="160" width="100" height="20" as="geometry" />
        </mxCell>
        <mxCell id="Pz-q8yQwdmYVx6Bokuys-9" style="edgeStyle=orthogonalEdgeStyle;rounded=0;orthogonalLoop=1;jettySize=auto;html=1;exitX=1;exitY=0.5;exitDx=0;exitDy=0;" parent="1" source="SBk4uGEy6tsVg_thaGGv-13" target="Pz-q8yQwdmYVx6Bokuys-3" edge="1">
          <mxGeometry relative="1" as="geometry" />
        </mxCell>
        <mxCell id="SBk4uGEy6tsVg_thaGGv-13" value="crm_prd_info" style="rounded=1;whiteSpace=wrap;html=1;fillColor=#ffe6cc;strokeColor=#d79b00;" parent="1" vertex="1">
          <mxGeometry x="220" y="190" width="100" height="20" as="geometry" />
        </mxCell>
        <mxCell id="Pz-q8yQwdmYVx6Bokuys-10" style="edgeStyle=orthogonalEdgeStyle;rounded=0;orthogonalLoop=1;jettySize=auto;html=1;exitX=1;exitY=0.5;exitDx=0;exitDy=0;" parent="1" source="SBk4uGEy6tsVg_thaGGv-15" target="Pz-q8yQwdmYVx6Bokuys-4" edge="1">
          <mxGeometry relative="1" as="geometry" />
        </mxCell>
        <mxCell id="SBk4uGEy6tsVg_thaGGv-15" value="crm_cust_info" style="rounded=1;whiteSpace=wrap;html=1;fillColor=#ffe6cc;strokeColor=#d79b00;" parent="1" vertex="1">
          <mxGeometry x="220" y="220" width="100" height="20" as="geometry" />
        </mxCell>
        <mxCell id="Pz-q8yQwdmYVx6Bokuys-11" style="edgeStyle=orthogonalEdgeStyle;rounded=0;orthogonalLoop=1;jettySize=auto;html=1;exitX=1;exitY=0.5;exitDx=0;exitDy=0;entryX=0;entryY=0.5;entryDx=0;entryDy=0;" parent="1" source="SBk4uGEy6tsVg_thaGGv-21" target="Pz-q8yQwdmYVx6Bokuys-5" edge="1">
          <mxGeometry relative="1" as="geometry" />
        </mxCell>
        <mxCell id="SBk4uGEy6tsVg_thaGGv-21" value="erp_cust_az12" style="rounded=1;whiteSpace=wrap;html=1;fillColor=#ffe6cc;strokeColor=#d79b00;" parent="1" vertex="1">
          <mxGeometry x="220" y="265" width="100" height="20" as="geometry" />
        </mxCell>
        <mxCell id="Pz-q8yQwdmYVx6Bokuys-12" style="edgeStyle=orthogonalEdgeStyle;rounded=0;orthogonalLoop=1;jettySize=auto;html=1;exitX=1;exitY=0.25;exitDx=0;exitDy=0;" parent="1" source="SBk4uGEy6tsVg_thaGGv-22" target="Pz-q8yQwdmYVx6Bokuys-6" edge="1">
          <mxGeometry relative="1" as="geometry" />
        </mxCell>
        <mxCell id="SBk4uGEy6tsVg_thaGGv-22" value="erp_loc_a101" style="rounded=1;whiteSpace=wrap;html=1;fillColor=#ffe6cc;strokeColor=#d79b00;" parent="1" vertex="1">
          <mxGeometry x="220" y="300" width="100" height="20" as="geometry" />
        </mxCell>
        <mxCell id="Pz-q8yQwdmYVx6Bokuys-13" style="edgeStyle=orthogonalEdgeStyle;rounded=0;orthogonalLoop=1;jettySize=auto;html=1;exitX=1;exitY=0.5;exitDx=0;exitDy=0;entryX=0;entryY=0.5;entryDx=0;entryDy=0;" parent="1" source="SBk4uGEy6tsVg_thaGGv-23" target="Pz-q8yQwdmYVx6Bokuys-7" edge="1">
          <mxGeometry relative="1" as="geometry" />
        </mxCell>
        <mxCell id="SBk4uGEy6tsVg_thaGGv-23" value="erp_px_cat_g1v2" style="rounded=1;whiteSpace=wrap;html=1;fillColor=#ffe6cc;strokeColor=#d79b00;" parent="1" vertex="1">
          <mxGeometry x="220" y="330" width="100" height="20" as="geometry" />
        </mxCell>
        <mxCell id="SBk4uGEy6tsVg_thaGGv-27" value="&lt;font style=&quot;font-size: 17px;&quot;&gt;Silver Layer&lt;/font&gt;" style="rounded=1;whiteSpace=wrap;html=1;fillColor=#e1d5e7;strokeColor=#9673a6;" parent="1" vertex="1">
          <mxGeometry x="375" y="80" width="125" height="40" as="geometry" />
        </mxCell>
        <mxCell id="Pz-q8yQwdmYVx6Bokuys-1" value="" style="rounded=0;whiteSpace=wrap;html=1;fillColor=none;strokeColor=default;" parent="1" vertex="1">
          <mxGeometry x="380" y="130" width="120" height="260" as="geometry" />
        </mxCell>
        <mxCell id="Pz-q8yQwdmYVx6Bokuys-2" value="crm_sales_details" style="rounded=1;whiteSpace=wrap;html=1;fillColor=#e1d5e7;strokeColor=#9673a6;" parent="1" vertex="1">
          <mxGeometry x="390" y="160" width="100" height="20" as="geometry" />
        </mxCell>
        <mxCell id="Pz-q8yQwdmYVx6Bokuys-3" value="crm_prd_info" style="rounded=1;whiteSpace=wrap;html=1;fillColor=#e1d5e7;strokeColor=#9673a6;" parent="1" vertex="1">
          <mxGeometry x="390" y="190" width="100" height="20" as="geometry" />
        </mxCell>
        <mxCell id="Pz-q8yQwdmYVx6Bokuys-4" value="crm_cust_info" style="rounded=1;whiteSpace=wrap;html=1;fillColor=#e1d5e7;strokeColor=#9673a6;" parent="1" vertex="1">
          <mxGeometry x="390" y="220" width="100" height="20" as="geometry" />
        </mxCell>
        <mxCell id="Pz-q8yQwdmYVx6Bokuys-5" value="erp_cust_az12" style="rounded=1;whiteSpace=wrap;html=1;fillColor=#e1d5e7;strokeColor=#9673a6;" parent="1" vertex="1">
          <mxGeometry x="390" y="265" width="100" height="20" as="geometry" />
        </mxCell>
        <mxCell id="Pz-q8yQwdmYVx6Bokuys-6" value="erp_loc_a101" style="rounded=1;whiteSpace=wrap;html=1;fillColor=#e1d5e7;strokeColor=#9673a6;" parent="1" vertex="1">
          <mxGeometry x="390" y="300" width="100" height="20" as="geometry" />
        </mxCell>
        <mxCell id="Pz-q8yQwdmYVx6Bokuys-7" value="erp_px_cat_g1v2" style="rounded=1;whiteSpace=wrap;html=1;fillColor=#e1d5e7;strokeColor=#9673a6;" parent="1" vertex="1">
          <mxGeometry x="390" y="330" width="100" height="20" as="geometry" />
        </mxCell>
        <mxCell id="-12-t1sZmjx4NbRTBHMX-10" value="&lt;font style=&quot;font-size: 17px;&quot;&gt;Gold Layer&lt;/font&gt;" style="rounded=1;whiteSpace=wrap;html=1;fillColor=#fff2cc;strokeColor=#d6b656;" vertex="1" parent="1">
          <mxGeometry x="570" y="80" width="125" height="40" as="geometry" />
        </mxCell>
        <mxCell id="-12-t1sZmjx4NbRTBHMX-11" value="" style="rounded=0;whiteSpace=wrap;html=1;fillColor=none;strokeColor=default;" vertex="1" parent="1">
          <mxGeometry x="567.5" y="130" width="135" height="260" as="geometry" />
        </mxCell>
        <mxCell id="-12-t1sZmjx4NbRTBHMX-12" value="fact_sales" style="rounded=1;whiteSpace=wrap;html=1;fillColor=#fff2cc;strokeColor=#d6b656;" vertex="1" parent="1">
          <mxGeometry x="573.75" y="160" width="117.5" height="40" as="geometry" />
        </mxCell>
        <mxCell id="-12-t1sZmjx4NbRTBHMX-13" value="dim_customers" style="rounded=1;whiteSpace=wrap;html=1;fillColor=#fff2cc;strokeColor=#d6b656;" vertex="1" parent="1">
          <mxGeometry x="576.25" y="210" width="117.5" height="40" as="geometry" />
        </mxCell>
        <mxCell id="-12-t1sZmjx4NbRTBHMX-14" value="dim_products" style="rounded=1;whiteSpace=wrap;html=1;fillColor=#fff2cc;strokeColor=#d6b656;" vertex="1" parent="1">
          <mxGeometry x="578.75" y="265" width="115" height="40" as="geometry" />
        </mxCell>
        <mxCell id="-12-t1sZmjx4NbRTBHMX-20" value="" style="endArrow=classic;html=1;rounded=0;exitX=1;exitY=0.5;exitDx=0;exitDy=0;entryX=0;entryY=0.5;entryDx=0;entryDy=0;flowAnimation=1;" edge="1" parent="1" source="Pz-q8yQwdmYVx6Bokuys-2" target="-12-t1sZmjx4NbRTBHMX-12">
          <mxGeometry width="50" height="50" relative="1" as="geometry">
            <mxPoint x="517.5" y="230" as="sourcePoint" />
            <mxPoint x="567.5" y="180" as="targetPoint" />
          </mxGeometry>
        </mxCell>
        <mxCell id="-12-t1sZmjx4NbRTBHMX-29" value="" style="endArrow=classic;html=1;rounded=0;exitX=1;exitY=0.5;exitDx=0;exitDy=0;entryX=0;entryY=0.5;entryDx=0;entryDy=0;flowAnimation=1;" edge="1" parent="1" source="Pz-q8yQwdmYVx6Bokuys-4" target="-12-t1sZmjx4NbRTBHMX-13">
          <mxGeometry width="50" height="50" relative="1" as="geometry">
            <mxPoint x="520" y="275" as="sourcePoint" />
            <mxPoint x="570" y="225" as="targetPoint" />
          </mxGeometry>
        </mxCell>
        <mxCell id="-12-t1sZmjx4NbRTBHMX-31" value="" style="endArrow=classic;html=1;rounded=0;exitX=1;exitY=0.5;exitDx=0;exitDy=0;flowAnimation=1;" edge="1" parent="1" source="Pz-q8yQwdmYVx6Bokuys-5">
          <mxGeometry width="50" height="50" relative="1" as="geometry">
            <mxPoint x="523.75" y="275" as="sourcePoint" />
            <mxPoint x="573.75" y="225" as="targetPoint" />
          </mxGeometry>
        </mxCell>
        <mxCell id="-12-t1sZmjx4NbRTBHMX-32" value="" style="endArrow=classic;html=1;rounded=0;entryX=0.019;entryY=0.379;entryDx=0;entryDy=0;entryPerimeter=0;flowAnimation=1;" edge="1" parent="1" target="-12-t1sZmjx4NbRTBHMX-11">
          <mxGeometry width="50" height="50" relative="1" as="geometry">
            <mxPoint x="490" y="315" as="sourcePoint" />
            <mxPoint x="540" y="265" as="targetPoint" />
          </mxGeometry>
        </mxCell>
        <mxCell id="-12-t1sZmjx4NbRTBHMX-33" value="" style="endArrow=classic;html=1;rounded=0;exitX=1;exitY=0.25;exitDx=0;exitDy=0;flowAnimation=1;" edge="1" parent="1" source="Pz-q8yQwdmYVx6Bokuys-3">
          <mxGeometry width="50" height="50" relative="1" as="geometry">
            <mxPoint x="528.75" y="335" as="sourcePoint" />
            <mxPoint x="578.75" y="285" as="targetPoint" />
          </mxGeometry>
        </mxCell>
        <mxCell id="-12-t1sZmjx4NbRTBHMX-34" value="" style="endArrow=classic;html=1;rounded=0;exitX=1;exitY=0.5;exitDx=0;exitDy=0;flowAnimation=1;" edge="1" parent="1" source="Pz-q8yQwdmYVx6Bokuys-7">
          <mxGeometry width="50" height="50" relative="1" as="geometry">
            <mxPoint x="528.75" y="335" as="sourcePoint" />
            <mxPoint x="578.75" y="285" as="targetPoint" />
          </mxGeometry>
        </mxCell>
      </root>
    </mxGraphModel>
  </diagram>
</mxfile>
